<svg width="40" height="40" viewBox="0 0 40 40" fill="none" xmlns="http://www.w3.org/2000/svg">
<path d="M40 20C40 8.9543 31.0457 -3.99656e-07 20 8.31668e-08C8.95431 5.65989e-07 -1.35705e-06 8.95431 -8.74228e-07 20C-3.91405e-07 31.0457 8.95431 40 20 40C31.0457 40 40 31.0457 40 20Z" fill="white"/>
<path d="M16.7273 32H21.96V18.8921H25.6104L26 14.5028H21.96C21.96 14.5028 21.96 12.8658 21.96 12.0023C21.96 10.9649 22.1698 10.5572 23.1708 10.5572C23.974 10.5572 26 10.5572 26 10.5572V6C26 6 23.015 6 22.3736 6C18.4775 6 16.7213 7.71494 16.7213 11.0009C16.7213 13.8612 16.7213 14.5028 16.7213 14.5028H14V18.946H16.7213V32H16.7273Z" fill="#CB9F4C"/>
</svg>
