<svg width="226" height="68" fill="none" xmlns="http://www.w3.org/2000/svg"><g clip-path="url(#a)"><path d="M217.032 67.335H8.967C4.39 67.335.645 63.585.645 59v-50C.645 4.418 4.39.668 8.967.668h208.065c4.577 0 8.322 3.75 8.322 8.333v50c0 4.584-3.745 8.334-8.322 8.334Z" fill="url(#b)"/><path d="M79.576 17.734c0 1.4-.416 2.516-1.248 3.333-.932.983-2.164 1.483-3.662 1.483-1.448 0-2.663-.5-3.679-1.5-1.015-1-1.514-2.25-1.514-3.716 0-1.483.499-2.717 1.514-3.717 1.016-1 2.23-1.5 3.679-1.5.716 0 1.398.133 2.047.417.65.283 1.166.65 1.565 1.116l-.882.884c-.666-.784-1.565-1.184-2.73-1.184a3.769 3.769 0 0 0-2.73 1.117c-.766.733-1.148 1.7-1.148 2.883 0 1.184.383 2.15 1.148 2.884.766.733 1.681 1.116 2.73 1.116 1.115 0 2.047-.366 2.796-1.116.483-.484.766-1.167.833-2.034h-3.629V17h4.844c.033.25.066.5.066.734ZM87.248 13.57h-4.544v3.166h4.094v1.2h-4.094v3.167h4.544v1.233h-5.826v-10h5.826v1.233ZM92.66 22.336h-1.282v-8.767h-2.796v-1.233h6.858v1.233h-2.797v8.767h.017ZM100.414 22.336v-10h1.282v10h-1.282ZM107.391 22.336h-1.282v-8.767h-2.797v-1.233h6.858v1.233h-2.796v8.767h.017ZM123.171 21.034c-.982 1.017-2.197 1.517-3.661 1.517-1.465 0-2.68-.5-3.662-1.517-.982-1.017-1.465-2.25-1.465-3.7 0-1.45.483-2.7 1.465-3.7.982-1.017 2.197-1.517 3.662-1.517 1.448 0 2.663.5 3.661 1.517.983 1.016 1.482 2.25 1.482 3.7-.017 1.466-.499 2.7-1.482 3.7Zm-6.375-.833c.733.75 1.648 1.116 2.714 1.116 1.065 0 1.98-.366 2.713-1.116.732-.75 1.115-1.7 1.115-2.867s-.366-2.117-1.115-2.867c-.733-.75-1.648-1.117-2.713-1.117-1.066 0-1.981.367-2.714 1.117-.732.75-1.115 1.7-1.115 2.867 0 1.166.383 2.117 1.115 2.867ZM126.449 22.336v-10h1.565l4.86 7.783h.05l-.05-1.933v-5.85h1.282v10h-1.332l-5.076-8.15h-.05l.05 1.933v6.217h-1.299Z" fill="#fff" stroke="#fff" stroke-width=".2" stroke-miterlimit="10"/><path d="M114.065 36.915c-3.911 0-7.107 2.984-7.107 7.084 0 4.083 3.196 7.083 7.107 7.083 3.912 0 7.108-3 7.108-7.083 0-4.1-3.196-7.084-7.108-7.084Zm0 11.384c-2.147 0-3.994-1.767-3.994-4.3 0-2.55 1.847-4.3 3.994-4.3 2.148 0 3.995 1.75 3.995 4.3 0 2.533-1.864 4.3-3.995 4.3ZM98.552 36.915c-3.912 0-7.107 2.984-7.107 7.084 0 4.083 3.196 7.083 7.107 7.083 3.912 0 7.108-3 7.108-7.083 0-4.1-3.196-7.084-7.108-7.084Zm0 11.384c-2.147 0-3.995-1.767-3.995-4.3 0-2.55 1.848-4.3 3.995-4.3 2.147 0 3.995 1.75 3.995 4.3 0 2.533-1.848 4.3-3.995 4.3Zm-18.443-9.2v3H87.3c-.216 1.683-.782 2.933-1.631 3.783-1.049 1.05-2.68 2.2-5.543 2.2-4.428 0-7.89-3.567-7.89-8s3.462-8 7.89-8c2.38 0 4.128.933 5.41 2.15l2.114-2.117c-1.798-1.716-4.178-3.033-7.54-3.033-6.06 0-11.153 4.933-11.153 11.017 0 6.066 5.094 11.016 11.152 11.016 3.28 0 5.743-1.066 7.674-3.083 1.98-1.983 2.596-4.783 2.596-7.033 0-.7-.05-1.35-.166-1.884H80.109V39.1Zm75.42 2.333c-.583-1.583-2.381-4.517-6.059-4.517-3.646 0-6.675 2.867-6.675 7.084 0 3.966 2.996 7.083 7.024 7.083 3.246 0 5.127-1.983 5.893-3.133l-2.414-1.617c-.799 1.183-1.897 1.967-3.479 1.967-1.581 0-2.713-.734-3.429-2.15l9.471-3.917-.332-.8Zm-9.655 2.367c-.083-2.734 2.114-4.134 3.696-4.134 1.231 0 2.28.617 2.629 1.5l-6.325 2.634Zm-7.69 6.866h3.113V29.832h-3.113v20.833ZM133.091 38.5h-.117c-.699-.834-2.03-1.584-3.728-1.584-3.546 0-6.791 3.117-6.791 7.117 0 3.967 3.245 7.067 6.791 7.067 1.681 0 3.029-.75 3.728-1.617h.1v1.017c0 2.716-1.448 4.166-3.778 4.166-1.898 0-3.08-1.366-3.562-2.516l-2.713 1.133c.782 1.883 2.846 4.183 6.275 4.183 3.645 0 6.724-2.15 6.724-7.383V37.349h-2.946v1.15h.017Zm-3.579 9.8c-2.147 0-3.945-1.8-3.945-4.267 0-2.5 1.798-4.317 3.945-4.317 2.114 0 3.779 1.834 3.779 4.317.016 2.467-1.648 4.267-3.779 4.267Zm40.598-18.467h-7.441v20.833h3.113v-7.9h4.344c3.446 0 6.825-2.5 6.825-6.466 0-3.967-3.412-6.467-6.841-6.467Zm.066 10.033h-4.411v-7.15h4.411c2.331 0 3.646 1.934 3.646 3.567 0 1.633-1.315 3.583-3.646 3.583Zm19.209-2.983c-2.247 0-4.578 1-5.543 3.183l2.763 1.15c.583-1.15 1.681-1.533 2.83-1.533 1.598 0 3.246.967 3.262 2.683v.217c-.566-.317-1.764-.8-3.246-.8-2.979 0-5.992 1.633-5.992 4.683 0 2.784 2.43 4.584 5.16 4.584 2.081 0 3.246-.934 3.962-2.034h.1v1.617h2.996v-7.983c.016-3.7-2.747-5.767-6.292-5.767Zm-.383 11.417c-1.015 0-2.43-.517-2.43-1.767 0-1.6 1.764-2.217 3.295-2.217 1.365 0 2.015.3 2.83.7-.233 1.917-1.897 3.284-3.695 3.284Zm17.611-10.967-3.563 9.033h-.099l-3.696-9.033h-3.345l5.543 12.633-3.163 7.017h3.246l8.539-19.65h-3.462Zm-27.964 13.333h3.112V29.832h-3.112v20.833ZM18.023 13.234c-.482.517-.765 1.316-.765 2.333v36.867c0 1.033.283 1.833.765 2.333l.117.117L38.763 34.25v-.5L18.14 13.117l-.117.117ZM46.367 41.134l-6.875-6.883v-.5l6.875-6.884.15.084 8.139 4.633c2.33 1.317 2.33 3.483 0 4.817l-8.14 4.633-.15.1ZM45.788 42.701l-7.025-7.033-20.74 20.767c.766.816 2.031.916 3.463.1L45.788 42.7ZM45.789 25.3 21.47 11.467c-1.431-.817-2.697-.716-3.462.1l20.756 20.767L45.79 25.3Z" fill="#fff"/></g><defs><radialGradient id="b" cx="0" cy="0" r="1" gradientUnits="userSpaceOnUse" gradientTransform="matrix(-150.07762 10.20232 -26.08237 -383.67548 186.935 21.577)"><stop stop-color="#C59439"/><stop offset="1" stop-color="#E9CF9F"/></radialGradient><clipPath id="a"><path fill="#fff" d="M0 0h226v68H0z"/></clipPath></defs></svg>