<svg width="40" height="40" fill="none" xmlns="http://www.w3.org/2000/svg"><path d="M40 20C40 8.954 31.046 0 20 0S0 8.954 0 20s8.954 20 20 20 20-8.954 20-20Z" fill="#fff"/><path d="M20.34 10.228c3.295 0 3.684.013 4.99.07 1.205.056 1.858.257 2.291.426.577.226.985.49 1.419.923.433.433.696.84.922 1.418.17.433.37 1.086.427 2.291.056 1.3.069 1.695.069 4.99 0 3.296-.012 3.685-.069 4.99-.056 1.205-.257 1.858-.427 2.291a3.83 3.83 0 0 1-.922 1.419 3.83 3.83 0 0 1-1.419.922c-.433.17-1.086.37-2.291.427-1.3.057-1.688.07-4.99.07-3.295 0-3.684-.013-4.99-.07-1.205-.056-1.858-.257-2.291-.427a3.83 3.83 0 0 1-1.418-.922 3.83 3.83 0 0 1-.923-1.419c-.17-.433-.37-1.086-.427-2.29-.056-1.3-.069-1.695-.069-4.99 0-3.296.013-3.685.069-4.99.056-1.206.257-1.859.427-2.292a3.83 3.83 0 0 1 .922-1.418 3.83 3.83 0 0 1 1.419-.923c.433-.17 1.086-.37 2.291-.427 1.306-.056 1.695-.069 4.99-.069Zm0-2.228c-3.352 0-3.772.013-5.09.075-1.312.063-2.21.27-2.994.572-.81.313-1.5.734-2.185 1.424a6.053 6.053 0 0 0-1.425 2.185c-.307.784-.514 1.682-.57 2.994C8.012 16.568 8 16.988 8 20.34s.013 3.772.075 5.09c.063 1.312.27 2.21.572 2.994.313.81.734 1.5 1.424 2.185a6.053 6.053 0 0 0 2.185 1.424c.784.308 1.682.515 2.994.572 1.318.062 1.738.075 5.09.075s3.772-.013 5.09-.075c1.312-.063 2.21-.27 2.994-.572.81-.313 1.5-.734 2.185-1.424a6.051 6.051 0 0 0 1.424-2.185c.308-.784.515-1.682.572-2.994.062-1.318.075-1.738.075-5.09s-.013-3.772-.075-5.09c-.063-1.312-.27-2.21-.572-2.994a5.971 5.971 0 0 0-1.424-2.185 6.052 6.052 0 0 0-2.185-1.425c-.784-.307-1.682-.514-2.994-.57C24.112 8.018 23.692 8 20.34 8Z" fill="#CB9F4C"/><path d="M20.34 14.008a6.338 6.338 0 0 0-6.34 6.34 6.338 6.338 0 0 0 6.34 6.339 6.338 6.338 0 0 0 6.339-6.34 6.338 6.338 0 0 0-6.34-6.34Zm0 10.45a4.11 4.11 0 0 1-4.112-4.11 4.11 4.11 0 0 1 4.111-4.112 4.11 4.11 0 0 1 4.112 4.111 4.105 4.105 0 0 1-4.111 4.111ZM28.412 13.755c0 .816-.665 1.481-1.482 1.481a1.484 1.484 0 0 1-1.48-1.481c0-.816.665-1.482 1.48-1.482.817 0 1.482.666 1.482 1.482Z" fill="#CB9F4C"/></svg>