<svg width="40" height="40" viewBox="0 0 40 40" fill="none" xmlns="http://www.w3.org/2000/svg">
<circle cx="20" cy="20" r="20" fill="white"/>
<path d="M30.2113 13.5609C29.5601 13.8544 28.8182 14.0359 28.1083 14.1533C28.4446 14.0946 28.9249 13.4915 29.1224 13.2459C29.4213 12.8723 29.6669 12.4453 29.811 11.9863C29.827 11.9489 29.8377 11.9062 29.8056 11.8795C29.7629 11.8635 29.7309 11.8688 29.6936 11.8902C28.9089 12.3119 28.0923 12.6161 27.2276 12.8349C27.1582 12.851 27.1048 12.8349 27.0568 12.7922C26.9874 12.7122 26.918 12.6321 26.8433 12.5734C26.4803 12.2638 26.0907 12.0183 25.6477 11.8422C25.0712 11.6073 24.436 11.5059 23.8115 11.5486C23.203 11.5859 22.6106 11.7568 22.0715 12.0396C21.5324 12.3225 21.052 12.7122 20.6677 13.1872C20.2727 13.6783 19.9791 14.2548 19.8297 14.8632C19.6855 15.4557 19.6962 16.0375 19.787 16.6353C19.7976 16.7367 19.7923 16.7474 19.7016 16.7367C16.3122 16.2297 13.4993 15.018 11.2201 12.4186C11.1187 12.3065 11.0653 12.3065 10.9853 12.4293C9.98712 13.9238 10.4728 16.3311 11.7165 17.5107C11.882 17.6708 12.0528 17.8256 12.2396 17.9697C12.1702 17.9857 11.3429 17.895 10.6009 17.5107C10.4995 17.4466 10.4515 17.484 10.4408 17.5961C10.4301 17.7562 10.4462 17.9057 10.4675 18.0818C10.6597 19.5977 11.7112 21.0015 13.147 21.5513C13.3178 21.6206 13.5046 21.6847 13.6914 21.7167C13.3658 21.7861 13.0242 21.8395 12.0848 21.7648C11.9674 21.7434 11.9247 21.8021 11.9674 21.9142C12.6719 23.8411 14.1985 24.4122 15.3407 24.7378C15.4955 24.7645 15.645 24.7645 15.7998 24.8019C15.7891 24.8179 15.7838 24.8179 15.7731 24.8285C15.3941 25.405 14.0811 25.8373 13.4726 26.0509C12.3624 26.4405 11.1507 26.6166 9.97645 26.4992C9.78963 26.4725 9.74693 26.4725 9.69889 26.4992C9.64552 26.5312 9.69356 26.5739 9.75227 26.6273C9.99246 26.7874 10.2327 26.9262 10.4782 27.0597C11.2255 27.4546 12.0047 27.7696 12.8161 27.9937C17.0167 29.152 21.7512 28.3033 24.9057 25.1648C27.3824 22.7042 28.2524 19.3095 28.2524 15.9094C28.2524 15.776 28.4072 15.7012 28.5033 15.6319C29.1491 15.1461 29.7042 14.5697 30.1846 13.9185C30.2914 13.7744 30.3341 13.6463 30.3341 13.5929C30.3341 13.5822 30.3341 13.5769 30.3341 13.5769C30.3287 13.5075 30.2914 13.5235 30.2113 13.5609Z" fill="#CB9F4C"/>
</svg>
