<svg width="40" height="40" fill="none" xmlns="http://www.w3.org/2000/svg"><path d="M40 20C40 8.954 31.046 0 20 0S0 8.954 0 20s8.954 20 20 20 20-8.954 20-20Z" fill="#fff"/><path d="m13.2 21.647 2.364 6.41 10.488-14.569-12.853 8.16Z" fill="#8F6D2C"/><path d="m15.825 23.07-.227 5.052 5.537-4.697-5.31-.355Z" fill="#D8B470"/><path d="M28.617 11.025 7.945 18.88c-.583.222-.57 1.055.024 1.253l5.331 1.8 12.14-7.834-9.616 8.968 7.487 5.68a1.362 1.362 0 0 0 2.145-.754L29.5 11.808a.668.668 0 0 0-.884-.783Z" fill="#CB9F4C"/></svg>