<?xml version="1.0" encoding="UTF-8"?> <svg xmlns="http://www.w3.org/2000/svg" width="1409" height="1139" viewBox="0 0 1409 1139" fill="none"> <path d="M345.479 1138.36L1408 524.942" stroke="#273450" stroke-miterlimit="10"></path> <path d="M1 1136.12L1400.1 344.69" stroke="#273450" stroke-miterlimit="10"></path> <path d="M1400.01 642.338L306.729 10.7446" stroke="#273450" stroke-miterlimit="10"></path> <path d="M1400.1 822.029L89.9463 80.9812" stroke="#273450" stroke-miterlimit="10"></path> <path d="M978.17 1136.12V0" stroke="#E8E8E8" stroke-miterlimit="10"></path> <path fill-rule="evenodd" clip-rule="evenodd" d="M815.134 678.799V490.512L978.288 396.311L1141.42 490.512V678.893L978.288 773.094L815.134 678.799ZM823.87 505.391L886.188 540.031L823.87 574.6V505.391ZM1132.66 495.441C1037.2 548.533 1060.55 535.453 978.288 581.211L823.916 495.441L978.288 406.425L1132.66 495.441ZM1070.36 540.031L1132.71 505.391V574.6L1070.36 540.031ZM823.87 584.691L895.181 544.983L978.288 591.184L1061.39 545.006L1132.71 584.714L978.288 674.782L823.87 584.691ZM1071.91 630.262L1132.64 594.805V664.037L1071.91 630.262ZM823.87 663.78V594.805L884.436 630.122L823.87 663.78ZM1132.47 673.894L978.311 762.91L823.893 673.754L893.195 635.33L978.288 684.966L980.483 683.681L1063.15 635.33L1132.47 673.894Z" fill="#273450"></path> </svg> 