<svg width="80" height="80" fill="none" xmlns="http://www.w3.org/2000/svg"><path d="M40 80C17.903 80 0 62.086 0 40 0 17.903 17.914 0 40 0c22.097 0 40 17.914 40 40S62.097 80 40 80Z" fill="url(#a)"/><path d="M40 22.019c5.856 0 6.548.022 8.868.123 2.141.1 3.301.457 4.071.758 1.026.402 1.751.87 2.521 1.64.77.77 1.238 1.495 1.64 2.52.3.77.658 1.93.758 4.072.1 2.31.123 3.012.123 8.868s-.022 6.548-.123 8.868c-.1 2.141-.457 3.301-.758 4.071-.402 1.026-.87 1.751-1.64 2.521-.77.77-1.495 1.238-2.52 1.64-.77.301-1.93.658-4.072.758-2.31.1-3 .123-8.868.123-5.856 0-6.548-.022-8.868-.123-2.142-.1-3.302-.457-4.071-.758-1.026-.402-1.752-.87-2.521-1.64-.77-.77-1.238-1.495-1.64-2.52-.301-.77-.658-1.93-.758-4.072-.1-2.31-.123-3.012-.123-8.868s.022-6.548.123-8.868c.1-2.142.457-3.302.758-4.071.402-1.026.87-1.752 1.64-2.521.77-.77 1.495-1.238 2.52-1.64.77-.301 1.93-.658 4.072-.758 2.32-.1 3.012-.123 8.868-.123Zm0-3.96c-5.957 0-6.704.022-9.046.134-2.332.111-3.927.48-5.321 1.015-1.439.558-2.666 1.305-3.882 2.532a10.755 10.755 0 0 0-2.532 3.882c-.547 1.394-.915 2.99-1.015 5.32-.111 2.343-.134 3.09-.134 9.047 0 5.956.023 6.704.134 9.046.112 2.331.48 3.927 1.015 5.32.558 1.44 1.305 2.667 2.532 3.883a10.755 10.755 0 0 0 3.882 2.532c1.394.546 2.99.914 5.32 1.015 2.343.111 3.09.134 9.047.134 5.956 0 6.704-.023 9.046-.134 2.331-.112 3.927-.48 5.32-1.015 1.44-.558 2.667-1.305 3.883-2.532a10.756 10.756 0 0 0 2.532-3.882c.546-1.395.914-2.99 1.015-5.32.111-2.343.134-3.09.134-9.047 0-5.957-.023-6.704-.134-9.046-.112-2.332-.48-3.927-1.015-5.321-.558-1.44-1.305-2.666-2.532-3.882a10.755 10.755 0 0 0-3.882-2.532c-1.394-.547-2.99-.915-5.32-1.015-2.343-.1-3.09-.134-9.047-.134Z" fill="#fff"/><path d="M40 28.734c-6.224 0-11.266 5.042-11.266 11.266S33.776 51.266 40 51.266 51.266 46.224 51.266 40 46.224 28.734 40 28.734Zm0 18.572A7.303 7.303 0 0 1 32.694 40 7.303 7.303 0 0 1 40 32.694 7.303 7.303 0 0 1 47.306 40c.011 4.038-3.268 7.306-7.306 7.306ZM54.345 28.288a2.637 2.637 0 0 1-2.633 2.632 2.637 2.637 0 0 1-2.632-2.632 2.637 2.637 0 0 1 2.632-2.633 2.637 2.637 0 0 1 2.633 2.633Z" fill="#fff"/><defs><radialGradient id="a" cx="0" cy="0" r="1" gradientUnits="userSpaceOnUse" gradientTransform="translate(-2.004 80.267) scale(147.926)"><stop stop-color="#F5EC53"/><stop offset=".241" stop-color="#E48244"/><stop offset=".397" stop-color="#D15767"/><stop offset=".489" stop-color="#C84278"/><stop offset="1" stop-color="#192CFA"/></radialGradient></defs></svg>