<svg width="80" height="80" fill="none" xmlns="http://www.w3.org/2000/svg"><path d="M40 80c22.091 0 40-17.909 40-40S62.091 0 40 0 0 17.909 0 40s17.909 40 40 40Z" fill="url(#a)"/><path d="m26.763 43.21 4.6 12.482L51.79 27.323 26.763 43.21Z" fill="#C2DAEC"/><path d="m31.869 45.982-.444 9.831 10.782-9.14-10.338-.691Z" fill="#9FCDE2"/><path d="M56.78 22.53 16.525 37.824c-1.135.433-1.109 2.054.047 2.44l10.38 3.505 23.638-15.253-18.722 17.46 14.578 11.061c1.515 1.151 3.717.375 4.176-1.468l7.878-31.515c.253-1.014-.74-1.895-1.722-1.526Z" fill="#ECF8FD"/><defs><linearGradient id="a" x1="11.718" y1="11.72" x2="68.284" y2="68.285" gradientUnits="userSpaceOnUse"><stop stop-color="#00AFE5"/><stop offset="1" stop-color="#0094D4"/></linearGradient></defs></svg>