<svg width="138" height="51" viewBox="0 0 138 51" fill="none" xmlns="http://www.w3.org/2000/svg">
<g filter="url(#filter0_d_380_1734)">
<path d="M65.144 18.512C66.152 18.512 67.048 18.736 67.832 19.184C68.616 19.616 69.224 20.264 69.656 21.128C70.104 21.976 70.328 23 70.328 24.2V32H66.968V24.656C66.968 23.6 66.704 22.792 66.176 22.232C65.648 21.656 64.928 21.368 64.016 21.368C63.088 21.368 62.352 21.656 61.808 22.232C61.28 22.792 61.016 23.6 61.016 24.656V32H57.656V14.24H61.016V20.36C61.448 19.784 62.024 19.336 62.744 19.016C63.464 18.68 64.264 18.512 65.144 18.512ZM85.8832 25.064C85.8832 25.544 85.8512 25.976 85.7872 26.36H76.0672C76.1472 27.32 76.4832 28.072 77.0752 28.616C77.6672 29.16 78.3952 29.432 79.2592 29.432C80.5072 29.432 81.3952 28.896 81.9232 27.824H85.5472C85.1632 29.104 84.4272 30.16 83.3392 30.992C82.2512 31.808 80.9152 32.216 79.3312 32.216C78.0512 32.216 76.8992 31.936 75.8752 31.376C74.8672 30.8 74.0752 29.992 73.4992 28.952C72.9392 27.912 72.6592 26.712 72.6592 25.352C72.6592 23.976 72.9392 22.768 73.4992 21.728C74.0592 20.688 74.8432 19.888 75.8512 19.328C76.8592 18.768 78.0192 18.488 79.3312 18.488C80.5952 18.488 81.7232 18.76 82.7152 19.304C83.7232 19.848 84.4992 20.624 85.0432 21.632C85.6032 22.624 85.8832 23.768 85.8832 25.064ZM82.4032 24.104C82.3872 23.24 82.0752 22.552 81.4672 22.04C80.8592 21.512 80.1152 21.248 79.2352 21.248C78.4032 21.248 77.6992 21.504 77.1232 22.016C76.5632 22.512 76.2192 23.208 76.0912 24.104H82.4032ZM87.4717 25.304C87.4717 23.96 87.7357 22.768 88.2637 21.728C88.8077 20.688 89.5357 19.888 90.4477 19.328C91.3757 18.768 92.4077 18.488 93.5437 18.488C94.5357 18.488 95.3997 18.688 96.1357 19.088C96.8877 19.488 97.4877 19.992 97.9357 20.6V18.704H101.32V32H97.9357V30.056C97.5037 30.68 96.9037 31.2 96.1357 31.616C95.3837 32.016 94.5117 32.216 93.5197 32.216C92.3997 32.216 91.3757 31.928 90.4477 31.352C89.5357 30.776 88.8077 29.968 88.2637 28.928C87.7357 27.872 87.4717 26.664 87.4717 25.304ZM97.9357 25.352C97.9357 24.536 97.7757 23.84 97.4557 23.264C97.1357 22.672 96.7037 22.224 96.1597 21.92C95.6157 21.6 95.0317 21.44 94.4077 21.44C93.7837 21.44 93.2077 21.592 92.6797 21.896C92.1517 22.2 91.7197 22.648 91.3837 23.24C91.0637 23.816 90.9037 24.504 90.9037 25.304C90.9037 26.104 91.0637 26.808 91.3837 27.416C91.7197 28.008 92.1517 28.464 92.6797 28.784C93.2237 29.104 93.7997 29.264 94.4077 29.264C95.0317 29.264 95.6157 29.112 96.1597 28.808C96.7037 28.488 97.1357 28.04 97.4557 27.464C97.7757 26.872 97.9357 26.168 97.9357 25.352ZM107.961 14.24V32H104.601V14.24H107.961ZM115.193 21.464V27.896C115.193 28.344 115.297 28.672 115.505 28.88C115.729 29.072 116.097 29.168 116.609 29.168H118.169V32H116.057C113.225 32 111.809 30.624 111.809 27.872V21.464H110.225V18.704H111.809V15.416H115.193V18.704H118.169V21.464H115.193ZM128.074 18.512C129.082 18.512 129.978 18.736 130.762 19.184C131.546 19.616 132.154 20.264 132.586 21.128C133.034 21.976 133.258 23 133.258 24.2V32H129.898V24.656C129.898 23.6 129.634 22.792 129.106 22.232C128.578 21.656 127.858 21.368 126.946 21.368C126.018 21.368 125.282 21.656 124.738 22.232C124.21 22.792 123.946 23.6 123.946 24.656V32H120.586V14.24H123.946V20.36C124.378 19.784 124.954 19.336 125.674 19.016C126.394 18.68 127.194 18.512 128.074 18.512Z" fill="#4C3C00"/>
<rect x="4" y="3" width="41" height="43" rx="11" fill="white"/>
<path d="M22.598 19.13V22.98H27.768V25.422H22.598V29.492H28.428V32H19.518V16.622H28.428V19.13H22.598Z" fill="#CB9A39"/>
</g>
<defs>
<filter id="filter0_d_380_1734" x="0" y="0" width="137.258" height="51" filterUnits="userSpaceOnUse" color-interpolation-filters="sRGB">
<feFlood flood-opacity="0" result="BackgroundImageFix"/>
<feColorMatrix in="SourceAlpha" type="matrix" values="0 0 0 0 0 0 0 0 0 0 0 0 0 0 0 0 0 0 127 0" result="hardAlpha"/>
<feOffset dy="1"/>
<feGaussianBlur stdDeviation="2"/>
<feComposite in2="hardAlpha" operator="out"/>
<feColorMatrix type="matrix" values="0 0 0 0 0.625 0 0 0 0 0.501736 0 0 0 0 0.255208 0 0 0 0.1 0"/>
<feBlend mode="normal" in2="BackgroundImageFix" result="effect1_dropShadow_380_1734"/>
<feBlend mode="normal" in="SourceGraphic" in2="effect1_dropShadow_380_1734" result="shape"/>
</filter>
</defs>
</svg>
